<svg xmlns="http://www.w3.org/2000/svg" viewBox="0 0 238.98 120.85"><g id="Layer_2" data-name="Layer 2"><g id="Graphic_Elements" data-name="Graphic Elements"><path d="M0,6.06H0A58.86,58.86,0,0,1,58.86,64.92v55.93a0,0,0,0,1,0,0h0A58.86,58.86,0,0,1,0,62V6.06a0,0,0,0,1,0,0Z"/><path d="M64,73.26h0V43.56a37.5,37.5,0,0,1,37.5-37.5h0V35.77A37.49,37.49,0,0,1,64,73.26Z"/><path d="M64,79.09h43a41.76,41.76,0,0,1,41.76,41.76v0a0,0,0,0,1,0,0h-43A41.76,41.76,0,0,1,64,79.09v0A0,0,0,0,1,64,79.09Z"/><path d="M239,43.16h0a0,0,0,0,1,0,0V77.5a43.35,43.35,0,0,1-43.35,43.35h0a0,0,0,0,1,0,0V86.51A43.35,43.35,0,0,1,239,43.16Z"/><path d="M159.75,24.86h49.72a0,0,0,0,1,0,0v0a48.29,48.29,0,0,1-48.29,48.29H111.46a0,0,0,0,1,0,0v0a48.29,48.29,0,0,1,48.29-48.29Z" transform="translate(209.47 -111.46) rotate(90)"/><circle cx="212.02" cy="20.66" r="16.39" transform="translate(142.86 222.15) rotate(-76.62)"/></g></g></svg>